<svg xmlns="http://www.w3.org/2000/svg" width="44.692" height="22.35" viewBox="0 0 44.692 22.35">
    <path fill="#ff5155" d="M33.524 6.75H11.175a11.175 11.175 0 1 0 7.976 19h6.391a11.173 11.173 0 1 0 7.983-19zM17.88 19.322a.841.841 0 0 1-.838.838H13.41v3.632a.841.841 0 0 1-.838.838H9.778a.841.841 0 0 1-.838-.838V20.16H5.308a.841.841 0 0 1-.838-.838v-2.794a.841.841 0 0 1 .838-.838H8.94v-3.632a.841.841 0 0 1 .838-.838h2.794a.841.841 0 0 1 .838.838v3.632h3.632a.841.841 0 0 1 .838.838zm12.851 4.749a3.352 3.352 0 1 1 3.352-3.352 3.353 3.353 0 0 1-3.352 3.352zm5.587-5.587a3.352 3.352 0 1 1 3.352-3.352 3.353 3.353 0 0 1-3.352 3.352z" transform="translate(0 -6.75)"/>
</svg>
