<svg xmlns="http://www.w3.org/2000/svg" width="234.17" height="156.113" viewBox="0 0 234.17 156.113">
    <path fill="#ff5155" d="M214.656 160.613H19.514A19.514 19.514 0 0 1 0 141.1V24.014A19.514 19.514 0 0 1 19.514 4.5h195.142a19.514 19.514 0 0 1 19.514 19.514V141.1a19.514 19.514 0 0 1-19.514 19.513zM52.038 51.659V35.4a4.879 4.879 0 0 0-4.879-4.879H30.9a4.879 4.879 0 0 0-4.881 4.879v16.259a4.879 4.879 0 0 0 4.881 4.879h16.259a4.879 4.879 0 0 0 4.879-4.879zm39.028 0V35.4a4.879 4.879 0 0 0-4.879-4.879H69.926a4.879 4.879 0 0 0-4.879 4.879v16.259a4.879 4.879 0 0 0 4.879 4.879h16.261a4.879 4.879 0 0 0 4.879-4.879zm39.028 0V35.4a4.879 4.879 0 0 0-4.879-4.879h-16.261a4.879 4.879 0 0 0-4.879 4.879v16.259a4.879 4.879 0 0 0 4.879 4.879h16.262a4.879 4.879 0 0 0 4.878-4.879zm39.028 0V35.4a4.879 4.879 0 0 0-4.879-4.879h-16.261A4.879 4.879 0 0 0 143.1 35.4v16.259a4.879 4.879 0 0 0 4.879 4.879h16.262a4.879 4.879 0 0 0 4.882-4.879zm39.028 0V35.4a4.879 4.879 0 0 0-4.879-4.879h-16.26a4.879 4.879 0 0 0-4.879 4.879v16.259a4.879 4.879 0 0 0 4.879 4.879h16.262a4.879 4.879 0 0 0 4.878-4.879zM71.552 90.687V74.426a4.879 4.879 0 0 0-4.879-4.879H50.412a4.879 4.879 0 0 0-4.879 4.879v16.261a4.879 4.879 0 0 0 4.879 4.879h16.261a4.879 4.879 0 0 0 4.879-4.879zm39.028 0V74.426a4.879 4.879 0 0 0-4.879-4.879H89.44a4.879 4.879 0 0 0-4.879 4.879v16.261a4.879 4.879 0 0 0 4.879 4.879h16.26a4.879 4.879 0 0 0 4.88-4.879zm39.028 0V74.426a4.879 4.879 0 0 0-4.879-4.879h-16.261a4.879 4.879 0 0 0-4.879 4.879v16.261a4.879 4.879 0 0 0 4.879 4.879h16.262a4.879 4.879 0 0 0 4.878-4.879zm39.028 0V74.426a4.879 4.879 0 0 0-4.879-4.879H167.5a4.879 4.879 0 0 0-4.879 4.879v16.261a4.879 4.879 0 0 0 4.879 4.879h16.262a4.879 4.879 0 0 0 4.875-4.879zm-136.6 39.028v-16.261a4.879 4.879 0 0 0-4.879-4.879H30.9a4.879 4.879 0 0 0-4.879 4.879v16.262a4.879 4.879 0 0 0 4.879 4.879h16.259a4.879 4.879 0 0 0 4.879-4.879zm117.085 0v-16.261a4.879 4.879 0 0 0-4.879-4.879H69.926a4.879 4.879 0 0 0-4.879 4.879v16.262a4.879 4.879 0 0 0 4.879 4.879h94.318a4.879 4.879 0 0 0 4.879-4.879zm39.028 0v-16.261a4.879 4.879 0 0 0-4.879-4.879h-16.259a4.879 4.879 0 0 0-4.879 4.879v16.262a4.879 4.879 0 0 0 4.879 4.879h16.262a4.879 4.879 0 0 0 4.878-4.879z" opacity="0.64" transform="translate(0 -4.5)"/>
</svg>
